<svg xmlns="http://www.w3.org/2000/svg" xmlns:xlink="http://www.w3.org/1999/xlink" id="图层_2" x="0" y="0" version="1.1" viewBox="0 0 888 888" style="enable-background:new 0 0 888 888" xml:space="preserve"><style type="text/css">.st0{fill:url(#SVGID_1_)}.st1{fill:url(#SVGID_2_)}.st2{fill:url(#SVGID_3_)}.st3{fill:url(#SVGID_4_)}</style><g><linearGradient id="SVGID_1_" x1="286.951" x2="286.951" y1="443.596" y2="858.511" gradientUnits="userSpaceOnUse"><stop offset=".2" style="stop-color:#feba07"/><stop offset="1" style="stop-color:#f26b1f"/></linearGradient><path d="M399.9,628.27l45.52-184.67c-64.4,33.11-130.64,81.13-186.49,135.21C131.44,702.24,90.17,826.15,167.51,853.28 c8.51,2.99,18.28,4.74,29.19,5.23L399.9,628.27z" class="st0"/></g><g><linearGradient id="SVGID_2_" x1="601.773" x2="601.773" y1="443.575" y2="858.49" gradientUnits="userSpaceOnUse"><stop offset=".2" style="stop-color:#feba07"/><stop offset="1" style="stop-color:#f26b1f"/></linearGradient><path d="M488.82,628.25l-45.52-184.67c64.4,33.11,130.64,81.13,186.49,135.21 c127.48,123.44,168.75,247.34,91.41,274.48c-8.51,2.99-18.28,4.74-29.19,5.23L488.82,628.25z" class="st1"/></g><g><linearGradient id="SVGID_3_" x1="286.951" x2="286.951" y1="157.327" y2="572.242" gradientTransform="matrix(1 0 0 -1 0 602.2417)" gradientUnits="userSpaceOnUse"><stop offset=".2" style="stop-color:#feba07"/><stop offset="1" style="stop-color:#f26b1f"/></linearGradient><path d="M399.9,260.24l45.52,184.67c-64.4-33.11-130.64-81.13-186.49-135.21C131.44,186.27,90.17,62.36,167.51,35.23 c8.51-2.99,18.28-4.74,29.19-5.23L399.9,260.24z" class="st2"/></g><g><linearGradient id="SVGID_4_" x1="601.773" x2="601.773" y1="157.306" y2="572.221" gradientTransform="matrix(1 0 0 -1 0 602.2417)" gradientUnits="userSpaceOnUse"><stop offset=".2" style="stop-color:#feba07"/><stop offset="1" style="stop-color:#f26b1f"/></linearGradient><path d="M488.82,260.26l-45.52,184.67c64.4-33.11,130.64-81.13,186.49-135.21C757.28,186.29,798.55,62.38,721.21,35.25 c-8.51-2.99-18.28-4.74-29.19-5.23L488.82,260.26z" class="st3"/></g></svg>