<?xml version="1.0" encoding="utf-8"?>
<!-- Generator: Adobe Illustrator 24.0.1, SVG Export Plug-In . SVG Version: 6.00 Build 0)  -->
<svg version="1.1" id="图层_2" xmlns="http://www.w3.org/2000/svg" xmlns:xlink="http://www.w3.org/1999/xlink" x="0px" y="0px"
	 viewBox="0 0 888 888" style="enable-background:new 0 0 888 888;" xml:space="preserve">
<style type="text/css">
	.st0{fill:url(#SVGID_1_);}
	.st1{fill:url(#SVGID_2_);}
	.st2{fill:url(#SVGID_3_);}
	.st3{fill:url(#SVGID_4_);}
</style>
<g>
	<linearGradient id="SVGID_1_" gradientUnits="userSpaceOnUse" x1="286.9509" y1="443.5957" x2="286.9509" y2="858.5106">
		<stop  offset="0.2" style="stop-color:#FEBA07"/>
		<stop  offset="1" style="stop-color:#F26B1F"/>
	</linearGradient>
	<path class="st0" d="M399.9,628.27l45.52-184.67c-64.4,33.11-130.64,81.13-186.49,135.21C131.44,702.24,90.17,826.15,167.51,853.28
		c8.51,2.99,18.28,4.74,29.19,5.23L399.9,628.27z"/>
</g>
<g>
	<linearGradient id="SVGID_2_" gradientUnits="userSpaceOnUse" x1="601.7725" y1="443.5751" x2="601.7725" y2="858.4901">
		<stop  offset="0.2" style="stop-color:#FEBA07"/>
		<stop  offset="1" style="stop-color:#F26B1F"/>
	</linearGradient>
	<path class="st1" d="M488.82,628.25l-45.52-184.67c64.4,33.11,130.64,81.13,186.49,135.21
		c127.48,123.44,168.75,247.34,91.41,274.48c-8.51,2.99-18.28,4.74-29.19,5.23L488.82,628.25z"/>
</g>
<g>

		<linearGradient id="SVGID_3_" gradientUnits="userSpaceOnUse" x1="286.9509" y1="157.3268" x2="286.9509" y2="572.2417" gradientTransform="matrix(1 0 0 -1 0 602.2417)">
		<stop  offset="0.2" style="stop-color:#FEBA07"/>
		<stop  offset="1" style="stop-color:#F26B1F"/>
	</linearGradient>
	<path class="st2" d="M399.9,260.24l45.52,184.67c-64.4-33.11-130.64-81.13-186.49-135.21C131.44,186.27,90.17,62.36,167.51,35.23
		c8.51-2.99,18.28-4.74,29.19-5.23L399.9,260.24z"/>
</g>
<g>

		<linearGradient id="SVGID_4_" gradientUnits="userSpaceOnUse" x1="601.7725" y1="157.3062" x2="601.7725" y2="572.2211" gradientTransform="matrix(1 0 0 -1 0 602.2417)">
		<stop  offset="0.2" style="stop-color:#FEBA07"/>
		<stop  offset="1" style="stop-color:#F26B1F"/>
	</linearGradient>
	<path class="st3" d="M488.82,260.26l-45.52,184.67c64.4-33.11,130.64-81.13,186.49-135.21C757.28,186.29,798.55,62.38,721.21,35.25
		c-8.51-2.99-18.28-4.74-29.19-5.23L488.82,260.26z"/>
</g>
</svg>
