<?xml version="1.0" encoding="utf-8"?>
<!-- Generator: Adobe Illustrator 24.0.1, SVG Export Plug-In . SVG Version: 6.00 Build 0)  -->
<svg version="1.1" xmlns="http://www.w3.org/2000/svg" xmlns:xlink="http://www.w3.org/1999/xlink" x="0px" y="0px"
	 viewBox="0 0 888 888" style="enable-background:new 0 0 888 888;" xml:space="preserve">
<style type="text/css">
	.st0{fill:url(#SVGID_1_);}
	.st1{fill:url(#SVGID_2_);}
	.st2{fill:url(#SVGID_3_);}
	.st3{fill:url(#SVGID_4_);}
	.st4{fill:url(#SVGID_5_);}
	.st5{fill:url(#SVGID_6_);}
	.st6{fill:url(#SVGID_7_);}
	.st7{fill:url(#SVGID_8_);}
	.st8{fill:url(#SVGID_9_);}
	.st9{fill:url(#SVGID_10_);}
	.st10{fill:url(#SVGID_11_);}
	.st11{fill:url(#SVGID_12_);}
	.st12{fill:url(#SVGID_13_);}
	.st13{fill:url(#SVGID_14_);}
	.st14{fill:url(#SVGID_15_);}
	.st15{fill:url(#SVGID_16_);}
	.st16{fill:url(#SVGID_17_);}
	.st17{fill:url(#SVGID_18_);}
	.st18{fill:url(#SVGID_19_);}
	.st19{fill:url(#SVGID_20_);}
	.st20{fill:url(#SVGID_21_);}
	.st21{fill:url(#SVGID_22_);}
	.st22{fill:url(#SVGID_23_);}
	.st23{fill:url(#SVGID_24_);}
	.st24{fill:url(#SVGID_25_);}
	.st25{fill:url(#SVGID_26_);}
	.st26{fill:#FEBA07;}
</style>
<g id="图层_3">
	<g>

			<linearGradient id="SVGID_1_" gradientUnits="userSpaceOnUse" x1="384.2108" y1="80.0455" x2="384.2108" y2="129.8483" gradientTransform="matrix(0.9946 0.1033 -0.1033 0.9946 18.2599 -35.0582)">
			<stop  offset="0" style="stop-color:#FEBA07"/>
			<stop  offset="1" style="stop-color:#7C1823"/>
		</linearGradient>
		<path class="st0" d="M394.91,108.6l9.66-23.05c-5.63,2.66-12.46,8.86-18.27,16.57c-9.73,12.93-13.86,26.49-9.14,30.05
			c0.83,0.62,1.9,0.92,3.18,0.87L394.91,108.6z"/>
	</g>
	<g>

			<linearGradient id="SVGID_2_" gradientUnits="userSpaceOnUse" x1="491.6973" y1="59.8303" x2="491.6973" y2="109.6331" gradientTransform="matrix(-0.9946 0.1033 0.1033 0.9946 997.5262 -25.0582)">
			<stop  offset="0" style="stop-color:#FEBA07"/>
			<stop  offset="1" style="stop-color:#7C1823"/>
		</linearGradient>
		<path class="st1" d="M511.88,109.6l-9.66-23.05c5.63,2.66,12.46,8.86,18.27,16.57c9.73,12.93,13.86,26.49,9.14,30.05
			c-0.83,0.62-1.9,0.92-3.18,0.87L511.88,109.6z"/>
	</g>
</g>
<g id="图层_1">
	<g>
		<linearGradient id="SVGID_3_" gradientUnits="userSpaceOnUse" x1="452.0125" y1="128.3936" x2="452.0125" y2="688.3432">
			<stop  offset="0" style="stop-color:#7C1823"/>
			<stop  offset="0.5" style="stop-color:#FEBA07"/>
			<stop  offset="1" style="stop-color:#7C1823"/>
		</linearGradient>
		<path class="st2" d="M861.99,251.92L111.53,685.2c-11.22,6.48-25.57,2.63-32.04-8.59l-46.04-79.75
			c-6.48-11.22-2.63-25.57,8.59-32.04l750.46-433.28c11.22-6.48,25.57-2.63,32.04,8.59l46.04,79.75
			C877.06,231.09,873.21,245.44,861.99,251.92z"/>
	</g>
	<g>
		<linearGradient id="SVGID_4_" gradientUnits="userSpaceOnUse" x1="30.2992" y1="408.3684" x2="873.7258" y2="408.3684">
			<stop  offset="0" style="stop-color:#7C1823"/>
			<stop  offset="0.5" style="stop-color:#FEBA07"/>
			<stop  offset="1" style="stop-color:#7C1823"/>
		</linearGradient>
		<path class="st3" d="M861.99,564.82L111.53,131.54c-11.22-6.48-25.57-2.63-32.04,8.59l-46.04,79.75
			c-6.48,11.22-2.63,25.57,8.59,32.04L792.49,685.2c11.22,6.48,25.57,2.63,32.04-8.59l46.04-79.75
			C877.06,585.64,873.21,571.3,861.99,564.82z"/>
	</g>
	<linearGradient id="SVGID_5_" gradientUnits="userSpaceOnUse" x1="62" y1="-7747" x2="62" y2="8636">
		<stop  offset="0" style="stop-color:#FEBA07"/>
		<stop  offset="1" style="stop-color:#7C1823"/>
	</linearGradient>
	<line class="st4" x1="62" y1="-7747" x2="62" y2="8636"/>
	<g>
		<linearGradient id="SVGID_6_" gradientUnits="userSpaceOnUse" x1="570.3654" y1="52.2956" x2="570.3654" y2="192.8976">
			<stop  offset="0" style="stop-color:#FEBA07"/>
			<stop  offset="1" style="stop-color:#7C1823"/>
		</linearGradient>
		<path class="st5" d="M548.06,114.87l-8.99-62.58c12.72,11.22,25.8,27.49,36.83,45.82c25.18,41.83,33.33,83.82,18.06,93.01
			c-1.68,1.01-3.61,1.61-5.76,1.77L548.06,114.87z"/>
	</g>
	<g>
		<linearGradient id="SVGID_7_" gradientUnits="userSpaceOnUse" x1="333.4393" y1="52.3026" x2="333.4393" y2="192.9045">
			<stop  offset="0" style="stop-color:#FEBA07"/>
			<stop  offset="1" style="stop-color:#7C1823"/>
		</linearGradient>
		<path class="st6" d="M355.75,114.88l8.99-62.58c-12.72,11.22-25.8,27.49-36.83,45.82c-25.18,41.83-33.33,83.82-18.06,93.01
			c1.68,1.01,3.61,1.61,5.76,1.77L355.75,114.88z"/>
	</g>
	<g>
		<linearGradient id="SVGID_8_" gradientUnits="userSpaceOnUse" x1="498.582" y1="70.4278" x2="498.582" y2="211.0298">
			<stop  offset="0" style="stop-color:#FEBA07"/>
			<stop  offset="1" style="stop-color:#7C1823"/>
		</linearGradient>
		<path class="st7" d="M476.27,133.01l-8.99-62.58c12.72,11.22,25.8,27.49,36.83,45.82c25.18,41.83,33.33,83.82,18.06,93.01
			c-1.68,1.01-3.61,1.61-5.76,1.77L476.27,133.01z"/>
	</g>
	<g>
		<linearGradient id="SVGID_9_" gradientUnits="userSpaceOnUse" x1="405.3542" y1="70.4278" x2="405.3542" y2="211.0298">
			<stop  offset="0" style="stop-color:#FEBA07"/>
			<stop  offset="1" style="stop-color:#7C1823"/>
		</linearGradient>
		<path class="st8" d="M427.66,133.01l8.99-62.58c-12.72,11.22-25.8,27.49-36.83,45.82c-25.18,41.83-33.33,83.82-18.06,93.01
			c1.68,1.01,3.61,1.61,5.76,1.77L427.66,133.01z"/>
	</g>
	<g>
		<linearGradient id="SVGID_10_" gradientUnits="userSpaceOnUse" x1="452.0778" y1="103.1277" x2="452.0778" y2="786.4527">
			<stop  offset="0.5" style="stop-color:#FEBA07"/>
			<stop  offset="1" style="stop-color:#7C1823"/>
		</linearGradient>
		<path class="st9" d="M452.08,786.45l216.08-246.16L585.62,142c0-51.83-267.09-51.83-267.09,0L236,540.29L452.08,786.45z"/>
	</g>
</g>
<g id="图层_2">
	<g>
		<linearGradient id="SVGID_11_" gradientUnits="userSpaceOnUse" x1="467.8335" y1="160.9479" x2="467.8335" y2="207.55">
			<stop  offset="0" style="stop-color:#FEBA07"/>
			<stop  offset="1" style="stop-color:#7C1823"/>
		</linearGradient>
		<path class="st10" d="M460.44,181.69l-2.98-20.74c4.22,3.72,8.55,9.11,12.21,15.19c8.35,13.86,11.05,27.78,5.98,30.83
			c-0.56,0.34-1.2,0.53-1.91,0.59L460.44,181.69z"/>
	</g>
	<g>
		<linearGradient id="SVGID_12_" gradientUnits="userSpaceOnUse" x1="436.9334" y1="160.9479" x2="436.9334" y2="207.55">
			<stop  offset="0" style="stop-color:#FEBA07"/>
			<stop  offset="1" style="stop-color:#7C1823"/>
		</linearGradient>
		<path class="st11" d="M444.33,181.69l2.98-20.74c-4.22,3.72-8.55,9.11-12.21,15.19c-8.35,13.86-11.05,27.78-5.98,30.83
			c0.56,0.34,1.2,0.53,1.91,0.59L444.33,181.69z"/>
	</g>
	<g>

			<linearGradient id="SVGID_13_" gradientUnits="userSpaceOnUse" x1="491.6259" y1="290.9607" x2="491.6259" y2="337.5627" gradientTransform="matrix(1 0 0 -1 0 462.5107)">
			<stop  offset="0" style="stop-color:#FEBA07"/>
			<stop  offset="1" style="stop-color:#7C1823"/>
		</linearGradient>
		<path class="st12" d="M484.23,150.81l-2.98,20.74c4.22-3.72,8.55-9.11,12.21-15.19c8.35-13.86,11.05-27.78,5.98-30.83
			c-0.56-0.34-1.2-0.53-1.91-0.59L484.23,150.81z"/>
	</g>
	<g>

			<linearGradient id="SVGID_14_" gradientUnits="userSpaceOnUse" x1="413.0975" y1="290.963" x2="413.0975" y2="337.5651" gradientTransform="matrix(1 0 0 -1 0 462.5107)">
			<stop  offset="0" style="stop-color:#FEBA07"/>
			<stop  offset="1" style="stop-color:#7C1823"/>
		</linearGradient>
		<path class="st13" d="M420.49,150.81l2.98,20.74c-4.22-3.72-8.55-9.11-12.21-15.19c-8.35-13.86-11.05-27.78-5.98-30.83
			c0.56-0.34,1.2-0.53,1.91-0.59L420.49,150.81z"/>
	</g>
	<g>

			<linearGradient id="SVGID_15_" gradientUnits="userSpaceOnUse" x1="467.8335" y1="300.9479" x2="467.8335" y2="347.55" gradientTransform="matrix(1 0 0 -1 0 462.5107)">
			<stop  offset="0" style="stop-color:#FEBA07"/>
			<stop  offset="1" style="stop-color:#7C1823"/>
		</linearGradient>
		<path class="st14" d="M460.44,140.82l-2.98,20.74c4.22-3.72,8.55-9.11,12.21-15.19c8.35-13.86,11.05-27.78,5.98-30.83
			c-0.56-0.34-1.2-0.53-1.91-0.59L460.44,140.82z"/>
	</g>
	<g>

			<linearGradient id="SVGID_16_" gradientUnits="userSpaceOnUse" x1="436.9334" y1="300.9479" x2="436.9334" y2="347.55" gradientTransform="matrix(1 0 0 -1 0 462.5107)">
			<stop  offset="0" style="stop-color:#FEBA07"/>
			<stop  offset="1" style="stop-color:#7C1823"/>
		</linearGradient>
		<path class="st15" d="M444.33,140.82l2.98,20.74c-4.22-3.72-8.55-9.11-12.21-15.19c-8.35-13.86-11.05-27.78-5.98-30.83
			c0.56-0.34,1.2-0.53,1.91-0.59L444.33,140.82z"/>
	</g>
	<g>
		<linearGradient id="SVGID_17_" gradientUnits="userSpaceOnUse" x1="413.0975" y1="150.963" x2="413.0975" y2="197.5651">
			<stop  offset="0" style="stop-color:#FEBA07"/>
			<stop  offset="1" style="stop-color:#7C1823"/>
		</linearGradient>
		<path class="st16" d="M420.49,171.7l2.98-20.74c-4.22,3.72-8.55,9.11-12.21,15.19c-8.35,13.86-11.05,27.78-5.98,30.83
			c0.56,0.34,1.2,0.53,1.91,0.59L420.49,171.7z"/>
	</g>
	<g>
		<linearGradient id="SVGID_18_" gradientUnits="userSpaceOnUse" x1="491.6259" y1="150.9606" x2="491.6259" y2="197.5627">
			<stop  offset="0" style="stop-color:#FEBA07"/>
			<stop  offset="1" style="stop-color:#7C1823"/>
		</linearGradient>
		<path class="st17" d="M484.23,171.7l-2.98-20.74c4.22,3.72,8.55,9.11,12.21,15.19c8.35,13.86,11.05,27.78,5.98,30.83
			c-0.56,0.34-1.2,0.53-1.91,0.59L484.23,171.7z"/>
	</g>
	<g>
		<linearGradient id="SVGID_19_" gradientUnits="userSpaceOnUse" x1="380.8335" y1="446.9479" x2="380.8335" y2="493.55">
			<stop  offset="0" style="stop-color:#FEBA07"/>
			<stop  offset="1" style="stop-color:#7C1823"/>
		</linearGradient>
		<path class="st18" d="M373.44,467.69l-2.98-20.74c4.22,3.72,8.55,9.11,12.21,15.19c8.35,13.86,11.05,27.78,5.98,30.83
			c-0.56,0.34-1.2,0.53-1.91,0.59L373.44,467.69z"/>
	</g>
	<g>
		<linearGradient id="SVGID_20_" gradientUnits="userSpaceOnUse" x1="349.9334" y1="446.9479" x2="349.9334" y2="493.55">
			<stop  offset="0" style="stop-color:#FEBA07"/>
			<stop  offset="1" style="stop-color:#7C1823"/>
		</linearGradient>
		<path class="st19" d="M357.33,467.69l2.98-20.74c-4.22,3.72-8.55,9.11-12.21,15.19c-8.35,13.86-11.05,27.78-5.98,30.83
			c0.56,0.34,1.2,0.53,1.91,0.59L357.33,467.69z"/>
	</g>
	<g>

			<linearGradient id="SVGID_21_" gradientUnits="userSpaceOnUse" x1="380.8335" y1="14.9479" x2="380.8335" y2="61.55" gradientTransform="matrix(1 0 0 -1 0 462.5107)">
			<stop  offset="0" style="stop-color:#FEBA07"/>
			<stop  offset="1" style="stop-color:#7C1823"/>
		</linearGradient>
		<path class="st20" d="M373.44,426.82l-2.98,20.74c4.22-3.72,8.55-9.11,12.21-15.19c8.35-13.86,11.05-27.78,5.98-30.83
			c-0.56-0.34-1.2-0.53-1.91-0.59L373.44,426.82z"/>
	</g>
	<g>

			<linearGradient id="SVGID_22_" gradientUnits="userSpaceOnUse" x1="349.9334" y1="14.9479" x2="349.9334" y2="61.55" gradientTransform="matrix(1 0 0 -1 0 462.5107)">
			<stop  offset="0" style="stop-color:#FEBA07"/>
			<stop  offset="1" style="stop-color:#7C1823"/>
		</linearGradient>
		<path class="st21" d="M357.33,426.82l2.98,20.74c-4.22-3.72-8.55-9.11-12.21-15.19c-8.35-13.86-11.05-27.78-5.98-30.83
			c0.56-0.34,1.2-0.53,1.91-0.59L357.33,426.82z"/>
	</g>
	<g>
		<linearGradient id="SVGID_23_" gradientUnits="userSpaceOnUse" x1="554.8336" y1="446.9479" x2="554.8336" y2="493.55">
			<stop  offset="0" style="stop-color:#FEBA07"/>
			<stop  offset="1" style="stop-color:#7C1823"/>
		</linearGradient>
		<path class="st22" d="M547.44,467.69l-2.98-20.74c4.22,3.72,8.55,9.11,12.21,15.19c8.35,13.86,11.05,27.78,5.98,30.83
			c-0.56,0.34-1.2,0.53-1.91,0.59L547.44,467.69z"/>
	</g>
	<g>
		<linearGradient id="SVGID_24_" gradientUnits="userSpaceOnUse" x1="523.9335" y1="446.9479" x2="523.9335" y2="493.55">
			<stop  offset="0" style="stop-color:#FEBA07"/>
			<stop  offset="1" style="stop-color:#7C1823"/>
		</linearGradient>
		<path class="st23" d="M531.33,467.69l2.98-20.74c-4.22,3.72-8.55,9.11-12.21,15.19c-8.35,13.86-11.05,27.78-5.98,30.83
			c0.56,0.34,1.2,0.53,1.91,0.59L531.33,467.69z"/>
	</g>
	<g>

			<linearGradient id="SVGID_25_" gradientUnits="userSpaceOnUse" x1="554.8336" y1="14.9479" x2="554.8336" y2="61.55" gradientTransform="matrix(1 0 0 -1 0 462.5107)">
			<stop  offset="0" style="stop-color:#FEBA07"/>
			<stop  offset="1" style="stop-color:#7C1823"/>
		</linearGradient>
		<path class="st24" d="M547.44,426.82l-2.98,20.74c4.22-3.72,8.55-9.11,12.21-15.19c8.35-13.86,11.05-27.78,5.98-30.83
			c-0.56-0.34-1.2-0.53-1.91-0.59L547.44,426.82z"/>
	</g>
	<g>

			<linearGradient id="SVGID_26_" gradientUnits="userSpaceOnUse" x1="523.9335" y1="14.9479" x2="523.9335" y2="61.55" gradientTransform="matrix(1 0 0 -1 0 462.5107)">
			<stop  offset="0" style="stop-color:#FEBA07"/>
			<stop  offset="1" style="stop-color:#7C1823"/>
		</linearGradient>
		<path class="st25" d="M531.33,426.82l2.98,20.74c-4.22-3.72-8.55-9.11-12.21-15.19c-8.35-13.86-11.05-27.78-5.98-30.83
			c0.56-0.34,1.2-0.53,1.91-0.59L531.33,426.82z"/>
	</g>
	<path class="st26" d="M451.98,99.15c-4.44-0.05-9.32,31.01-7.89,31.02c1.42,0.02,13.5,0.15,15.09,0.17
		C460.76,130.36,456.42,99.2,451.98,99.15z"/>
	<path class="st26" d="M324.98,121.15c-4.44-0.05-9.32,31.01-7.89,31.02c1.42,0.02,13.5,0.15,15.09,0.17
		C333.76,152.36,329.42,121.2,324.98,121.15z"/>
	<path class="st26" d="M579.98,121.15c-4.44-0.05-9.32,31.01-7.89,31.02s13.5,0.15,15.09,0.17
		C588.76,152.36,584.42,121.2,579.98,121.15z"/>
</g>
</svg>
